<svg width="147" height="48" viewBox="0 0 147 48" fill="none" xmlns="http://www.w3.org/2000/svg">
<rect width="147" height="48" rx="24" fill="#2093E7"/>
<path d="M30.06 29V18.864H32.286V27.054H36.724V29H30.06ZM37.5456 29V18.864H43.8036V20.81H39.7716V22.798H43.2436V24.646H39.7716V27.054H43.9576V29H37.5456ZM44.2313 29L48.3473 18.864H50.5033L54.6193 29H52.2393L51.4273 26.872H47.3393L46.5133 29H44.2313ZM48.4313 24.044L48.0253 25.122H50.7553L50.3353 23.988C49.9713 22.9987 49.6633 22.14 49.4113 21.412H49.3833C49.0846 22.2613 48.7673 23.1387 48.4313 24.044ZM55.3059 29V18.864H58.4839C61.3959 18.864 62.8519 19.8813 62.8519 21.916C62.8519 22.5787 62.6746 23.1573 62.3199 23.652C61.9652 24.1467 61.4566 24.5013 60.7939 24.716L63.6499 29H61.0879L58.5259 24.996H57.5319V29H55.3059ZM57.5319 23.33H58.6519C59.3052 23.33 59.7952 23.232 60.1219 23.036C60.4579 22.84 60.6259 22.518 60.6259 22.07C60.6259 21.622 60.4532 21.3 60.1079 21.104C59.7719 20.908 59.1979 20.81 58.3859 20.81H57.5319V23.33ZM71.2564 29L68.2184 24.912C67.6864 24.1933 67.0517 23.3207 66.3144 22.294L66.2864 22.308C66.3051 23.596 66.3144 24.5713 66.3144 25.234V29H64.1724V18.864H66.2724L69.3104 22.952C69.8424 23.6707 70.4771 24.5433 71.2144 25.57L71.2424 25.556C71.2237 24.268 71.2144 23.2927 71.2144 22.63V18.864H73.3564V29H71.2564ZM83.0639 26.662L81.5939 24.576C81.1459 23.9413 80.6512 23.218 80.1099 22.406L80.0819 22.42C80.1005 23.3907 80.1099 24.2307 80.1099 24.94V29H77.9679V18.864H80.1099L83.1199 23.148L86.1299 18.864H88.2439V29H86.0179V24.94C86.0179 24.2307 86.0272 23.3907 86.0459 22.42L86.0179 22.406C85.4765 23.218 84.9819 23.9413 84.5339 24.576L83.0639 26.662ZM92.4748 26.214C93.0628 26.83 93.7908 27.138 94.6588 27.138C95.5268 27.138 96.2548 26.83 96.8428 26.214C97.4308 25.5887 97.7248 24.828 97.7248 23.932C97.7248 23.036 97.4308 22.28 96.8428 21.664C96.2548 21.0387 95.5268 20.726 94.6588 20.726C93.7908 20.726 93.0628 21.0387 92.4748 21.664C91.8868 22.28 91.5928 23.036 91.5928 23.932C91.5928 24.828 91.8868 25.5887 92.4748 26.214ZM98.4248 27.656C97.4168 28.6547 96.1615 29.154 94.6588 29.154C93.1562 29.154 91.8962 28.6547 90.8788 27.656C89.8708 26.648 89.3668 25.4067 89.3668 23.932C89.3668 22.4573 89.8708 21.2207 90.8788 20.222C91.8962 19.214 93.1562 18.71 94.6588 18.71C96.1615 18.71 97.4168 19.214 98.4248 20.222C99.4422 21.2207 99.9508 22.4573 99.9508 23.932C99.9508 25.4067 99.4422 26.648 98.4248 27.656ZM101.074 29V18.864H104.252C107.164 18.864 108.62 19.8813 108.62 21.916C108.62 22.5787 108.443 23.1573 108.088 23.652C107.733 24.1467 107.225 24.5013 106.562 24.716L109.418 29H106.856L104.294 24.996H103.3V29H101.074ZM103.3 23.33H104.42C105.073 23.33 105.563 23.232 105.89 23.036C106.226 22.84 106.394 22.518 106.394 22.07C106.394 21.622 106.221 21.3 105.876 21.104C105.54 20.908 104.966 20.81 104.154 20.81H103.3V23.33ZM109.94 29V18.864H116.198V20.81H112.166V22.798H115.638V24.646H112.166V27.054H116.352V29H109.94Z" fill="#130101"/>
</svg>
